<?xml version="1.0" standalone="no"?>
<!DOCTYPE svg PUBLIC "-//W3C//DTD SVG 20010904//EN"
 "http://www.w3.org/TR/2001/REC-SVG-20010904/DTD/svg10.dtd">
<svg version="1.0" xmlns="http://www.w3.org/2000/svg"
 width="906.000000pt" height="906.000000pt" viewBox="0 0 906.000000 906.000000"
 preserveAspectRatio="xMidYMid meet">
<metadata>
Created by potrace 1.11, written by Peter Selinger 2001-2013
</metadata>
<g transform="translate(0.000000,906.000000) scale(0.100000,-0.100000)"
fill="#000000" stroke="none">
<path d="M3750 6520 c-91 -15 -145 -26 -145 -30 0 -1 -10 -3 -22 -6 -33 -6
-151 -63 -203 -97 -43 -28 -150 -132 -196 -188 -20 -25 -105 -190 -113 -219
-42 -163 -44 -286 -9 -430 15 -61 72 -195 103 -241 14 -21 25 -41 25 -44 0
-11 108 -150 159 -205 28 -30 51 -57 50 -60 0 -3 -39 -32 -86 -65 -87 -61
-241 -205 -304 -285 -133 -169 -237 -386 -264 -550 -4 -25 -9 -54 -11 -65 -7
-29 -5 -266 1 -295 3 -14 7 -43 10 -65 7 -64 20 -119 47 -200 101 -308 349
-587 638 -718 95 -43 204 -78 285 -93 11 -2 34 -6 50 -9 55 -10 179 -19 265
-19 91 1 249 12 260 19 4 3 22 7 41 9 55 8 255 72 269 86 3 3 23 14 45 25 125
63 312 231 407 365 49 70 120 206 133 255 15 55 16 60 24 115 14 84 5 297 -15
362 -3 10 -7 30 -10 44 -7 36 -48 152 -67 188 -9 16 -14 33 -12 36 2 4 48 8
102 8 54 1 118 4 143 6 84 10 143 18 164 22 12 3 32 7 46 10 71 13 86 17 98
26 6 6 12 8 12 5 0 -9 120 38 193 74 121 61 274 192 345 295 46 68 98 222 107
319 8 83 8 82 1 159 -17 196 -109 376 -279 548 -130 132 -214 189 -342 233
-68 23 -80 25 -155 29 -119 7 -191 -34 -208 -119 -23 -118 38 -183 243 -260
123 -47 189 -87 260 -160 65 -67 102 -131 123 -214 10 -37 10 -210 1 -251 -12
-53 -45 -127 -71 -155 -10 -11 -26 -29 -35 -41 -55 -64 -236 -156 -365 -184
-130 -28 -242 -29 -543 -5 -319 26 -512 25 -586 -4 -13 -5 -27 -9 -32 -9 -4
-1 -36 -15 -72 -32 -69 -33 -130 -85 -145 -126 -18 -46 -12 -117 16 -171 40
-82 120 -109 226 -77 9 3 25 7 35 9 10 2 57 15 106 30 48 14 102 26 120 27 47
1 108 -19 138 -45 33 -30 75 -102 85 -147 4 -19 10 -42 12 -50 2 -8 6 -71 8
-140 5 -185 -21 -287 -107 -413 -116 -170 -326 -303 -524 -333 -11 -2 -33 -6
-50 -10 -46 -10 -217 -11 -293 -3 -96 11 -187 37 -267 75 -147 70 -218 125
-314 244 -20 25 -38 47 -41 50 -6 6 -26 39 -61 105 -25 46 -64 151 -75 200
-16 75 -24 137 -19 144 3 6 2 12 -3 14 -8 6 -7 166 3 224 3 21 8 55 11 75 3
21 16 72 29 113 23 70 38 103 98 210 30 53 169 192 237 237 30 20 81 48 112
64 l57 28 48 -22 c97 -43 228 -50 355 -17 94 23 148 60 179 121 48 94 23 192
-64 255 -39 29 -137 64 -207 76 -77 12 -213 3 -251 -18 -13 -7 -26 -2 -50 19
-134 111 -238 305 -254 472 -2 25 -5 45 -5 45 -1 0 -2 23 -2 50 -2 103 24 184
81 255 41 51 92 99 105 100 5 0 17 7 26 15 19 17 108 50 161 61 77 15 204 10
298 -10 50 -11 138 -53 206 -97 163 -106 217 -124 280 -92 73 38 101 108 82
203 -7 41 -108 160 -135 160 -4 0 -17 8 -28 18 -10 9 -50 32 -89 51 -38 18
-77 37 -87 42 -24 12 -133 40 -211 54 -76 14 -267 16 -337 5z"/>
<path d="M1805 6379 c-16 -4 -61 -34 -100 -65 -38 -31 -80 -60 -93 -65 -38
-15 -88 -10 -144 12 -29 11 -60 22 -68 24 -199 41 -232 45 -327 46 -59 1 -79
-5 -153 -40 -62 -29 -103 -41 -152 -46 -37 -3 -84 -13 -105 -21 -37 -16 -193
-165 -193 -185 0 -6 -13 -29 -28 -52 -16 -23 -39 -69 -52 -102 -13 -33 -28
-66 -33 -72 -5 -7 -7 -13 -4 -13 4 0 0 -18 -8 -40 -8 -22 -17 -59 -21 -82 -10
-70 -12 -269 -2 -308 8 -33 47 -119 58 -130 55 -53 130 -178 145 -242 10 -40
101 -117 135 -115 21 1 95 -51 143 -102 34 -36 69 -63 85 -66 15 -3 40 -7 57
-11 31 -5 95 -49 95 -63 0 -16 64 -39 125 -45 55 -7 141 -35 224 -75 30 -14
64 -50 126 -134 11 -15 27 -30 37 -32 9 -3 27 -27 39 -53 21 -42 24 -61 24
-187 l0 -140 -49 -85 c-26 -47 -66 -112 -87 -146 -37 -58 -42 -61 -96 -74 -64
-14 -76 -20 -150 -72 -56 -41 -93 -47 -187 -34 -64 8 -220 49 -268 69 -21 9
-38 14 -38 12 0 -6 -91 37 -117 55 -21 16 -113 161 -113 180 0 6 -5 10 -12 10
-6 0 -8 3 -5 7 4 3 1 13 -6 22 -8 9 -25 36 -38 61 -13 25 -26 47 -29 50 -7 7
-29 43 -37 60 -4 8 -9 17 -13 20 -3 3 -17 21 -30 40 -31 47 -49 60 -81 60 -34
0 -45 -30 -54 -141 -3 -42 -7 -85 -9 -96 -2 -11 -7 -64 -11 -119 -4 -54 -8
-108 -9 -119 -3 -32 15 -117 29 -145 30 -58 100 -111 166 -124 92 -19 181 -35
219 -40 25 -3 61 -11 80 -16 52 -16 87 -19 295 -26 344 -12 375 -10 436 18 30
14 98 55 153 91 54 36 111 69 127 72 32 7 69 48 69 76 0 10 29 47 65 84 36 36
65 72 65 80 0 8 3 15 8 15 4 0 16 28 27 63 11 34 31 82 45 107 23 43 25 53 25
215 1 156 -1 174 -21 223 -13 28 -21 52 -18 52 5 0 -34 78 -47 94 -5 6 -24 28
-43 49 -18 21 -45 72 -61 113 -27 71 -32 77 -94 118 -115 76 -245 156 -254
156 -12 0 -208 98 -227 113 -25 20 -92 54 -135 67 -100 31 -205 91 -264 150
-95 95 -135 198 -133 341 1 69 9 92 78 234 86 179 155 218 369 210 145 -6 169
-9 244 -34 120 -39 159 -78 324 -324 64 -97 109 -147 132 -147 15 0 34 35 42
77 8 42 7 283 -1 378 -3 42 1 83 15 135 23 86 18 142 -14 165 -24 17 -29 17
-72 4z"/>
<path d="M8504 6375 c-10 -5 -54 -37 -98 -70 -91 -68 -130 -78 -207 -50 -24 9
-52 18 -62 20 -9 2 -21 6 -25 9 -5 3 -22 8 -38 10 -34 7 -70 14 -104 21 -83
17 -249 21 -279 6 -12 -6 -31 -16 -43 -23 -82 -43 -89 -45 -168 -52 -71 -7
-102 -17 -140 -44 -190 -139 -323 -441 -314 -714 5 -143 24 -198 103 -293 38
-45 121 -199 121 -223 0 -19 64 -64 135 -97 49 -23 87 -50 129 -92 52 -55 64
-62 118 -73 49 -9 69 -20 107 -55 45 -41 62 -49 146 -61 71 -10 79 -12 165
-50 93 -41 93 -41 137 -104 17 -25 51 -63 75 -85 33 -31 46 -53 57 -95 12 -48
16 -172 8 -260 -3 -27 -93 -200 -111 -212 -7 -5 -7 -8 -1 -8 7 0 7 -3 0 -8 -6
-4 -23 -26 -38 -49 -15 -24 -35 -43 -45 -43 -34 0 -120 -38 -182 -80 -52 -35
-72 -43 -107 -43 -34 1 -111 10 -143 18 -3 0 -30 7 -60 14 -189 44 -316 102
-345 159 -11 20 -52 93 -92 161 -40 67 -73 125 -73 127 0 6 -41 64 -57 82 -7
7 -13 17 -13 22 0 5 -12 22 -26 39 -27 33 -73 42 -92 19 -11 -15 -21 -79 -28
-188 -2 -41 -7 -81 -9 -88 -12 -34 -16 -224 -6 -271 23 -109 104 -174 246
-198 11 -1 31 -6 45 -10 14 -3 29 -5 33 -5 4 1 51 -7 105 -19 123 -26 128 -26
362 -35 242 -9 336 -9 377 0 36 7 97 41 206 115 40 27 96 58 124 71 45 19 54
28 66 65 9 26 34 60 66 90 45 42 101 134 101 165 0 6 15 44 34 84 34 73 35 73
35 229 1 130 -2 166 -18 211 -10 30 -16 57 -13 60 3 3 0 6 -6 6 -7 0 -12 7
-12 15 0 24 -19 53 -84 133 -30 36 -76 134 -76 162 0 26 -237 174 -432 269
-81 39 -153 77 -160 84 -16 15 -43 27 -148 66 -154 58 -246 136 -308 260 -36
73 -37 78 -37 185 l0 111 56 116 c73 151 130 213 219 237 38 11 246 8 312 -4
149 -26 223 -64 278 -144 13 -19 31 -41 38 -49 8 -8 26 -32 40 -54 169 -254
195 -278 229 -214 14 26 18 60 19 182 0 83 -2 186 -5 230 -5 65 -2 94 15 155
23 78 19 114 -14 152 -15 18 -58 20 -88 3z"/>
</g>
</svg>
